<svg xmlns="http://www.w3.org/2000/svg" xmlns:xlink="http://www.w3.org/1999/xlink" contentStyleType="text/css" data-diagram-type="DESCRIPTION" height="511px" preserveAspectRatio="none" style="width:1476px;height:511px;background:#FFFFFF;" version="1.1" viewBox="0 0 1476 511" width="1476px" zoomAndPan="magnify"><?plantuml 1.2026.3beta6?><defs/><g><g class="title" data-source-line="43"><text fill="#000000" font-family="sans-serif" font-size="14" font-weight="700" lengthAdjust="spacing" textLength="451.9648" x="508.6876" y="22.9951">Sistema de Aluguel de Carros - Diagrama de Implantacao</text></g><!--cluster cliente--><g class="cluster" data-qualified-name="cliente" data-source-line="47" id="ent0003"><polygon fill="#F4F9FD" points="218.6,205.2969,228.6,195.2969,394.53,195.2969,394.53,288.2969,384.53,298.2969,218.6,298.2969,218.6,205.2969" style="stroke:#2E75B6;stroke-width:1.5;"/><line style="stroke:#2E75B6;stroke-width:1.5;" x1="384.53" x2="394.53" y1="205.2969" y2="195.2969"/><line style="stroke:#2E75B6;stroke-width:1.5;" x1="218.6" x2="384.53" y1="205.2969" y2="205.2969"/><line style="stroke:#2E75B6;stroke-width:1.5;" x1="384.53" x2="384.53" y1="205.2969" y2="298.2969"/><text fill="#1F4E79" font-family="sans-serif" font-size="12" font-weight="700" lengthAdjust="spacing" textLength="47.5898" x="278.7701" y="219.4355">Cliente</text></g><!--cluster backend--><g class="cluster" data-qualified-name="backend" data-source-line="51" id="ent0005"><polygon fill="#F4F9FD" points="598.53,53.2969,608.53,43.2969,1451.34,43.2969,1451.34,349.2969,1441.34,359.2969,598.53,359.2969,598.53,53.2969" style="stroke:#2E75B6;stroke-width:1.5;"/><line style="stroke:#2E75B6;stroke-width:1.5;" x1="1441.34" x2="1451.34" y1="53.2969" y2="43.2969"/><line style="stroke:#2E75B6;stroke-width:1.5;" x1="598.53" x2="1441.34" y1="53.2969" y2="53.2969"/><line style="stroke:#2E75B6;stroke-width:1.5;" x1="1441.34" x2="1441.34" y1="53.2969" y2="359.2969"/><text fill="#1F4E79" font-family="sans-serif" font-size="12" font-weight="700" lengthAdjust="spacing" textLength="119.1738" x="961.3481" y="67.4355">Servidor Backend</text><text fill="#1F4E79" font-family="sans-serif" font-size="12" font-weight="700" lengthAdjust="spacing" textLength="99.5449" x="971.1625" y="81.4043">localhost:8080</text></g><!--entity appAngular--><g class="entity" data-qualified-name="cliente.appAngular" data-source-line="48" id="ent0004"><rect fill="#DEEAF1" height="50.9375" rx="2.5" ry="2.5" style="stroke:#2E75B6;stroke-width:0.5;" width="143.9297" x="234.6" y="231.8269"/><polygon fill="#DEEAF1" points="361.5297,236.8269,361.5297,250.8269,373.5297,250.8269,373.5297,242.8269,367.5297,236.8269,361.5297,236.8269" style="stroke:#2E75B6;stroke-width:0.5;"/><line style="stroke:#2E75B6;stroke-width:0.5;" x1="367.5297" x2="367.5297" y1="236.8269" y2="242.8269"/><line style="stroke:#2E75B6;stroke-width:0.5;" x1="373.5297" x2="367.5297" y1="242.8269" y2="242.8269"/><text fill="#1F4E79" font-family="sans-serif" font-size="12" lengthAdjust="spacing" textLength="48.8906" x="244.6" y="255.9655">Browser</text><text fill="#1F4E79" font-family="sans-serif" font-size="12" lengthAdjust="spacing" textLength="113.9297" x="244.6" y="269.9343">(Frontend Angular)</text></g><!--entity api--><g class="entity" data-qualified-name="backend.api" data-source-line="52" id="ent0006"><rect fill="#DEEAF1" height="50.9375" rx="2.5" ry="2.5" style="stroke:#2E75B6;stroke-width:0.5;" width="147.3105" x="622.53" y="231.8269"/><polygon fill="#DEEAF1" points="752.8405,236.8269,752.8405,250.8269,764.8405,250.8269,764.8405,242.8269,758.8405,236.8269,752.8405,236.8269" style="stroke:#2E75B6;stroke-width:0.5;"/><line style="stroke:#2E75B6;stroke-width:0.5;" x1="758.8405" x2="758.8405" y1="236.8269" y2="242.8269"/><line style="stroke:#2E75B6;stroke-width:0.5;" x1="764.8405" x2="758.8405" y1="242.8269" y2="242.8269"/><text fill="#1F4E79" font-family="sans-serif" font-size="12" lengthAdjust="spacing" textLength="117.3105" x="632.53" y="255.9655">API REST Micronaut</text><text fill="#1F4E79" font-family="sans-serif" font-size="12" lengthAdjust="spacing" textLength="94.9863" x="632.53" y="269.9343">Java 21 + Netty</text></g><!--entity jwt--><g class="entity" data-qualified-name="backend.jwt" data-source-line="53" id="ent0007"><rect fill="#DEEAF1" height="50.9375" rx="2.5" ry="2.5" style="stroke:#2E75B6;stroke-width:0.5;" width="108.0176" x="1009.09" y="284.8269"/><polygon fill="#DEEAF1" points="1100.1076,289.8269,1100.1076,303.8269,1112.1076,303.8269,1112.1076,295.8269,1106.1076,289.8269,1100.1076,289.8269" style="stroke:#2E75B6;stroke-width:0.5;"/><line style="stroke:#2E75B6;stroke-width:0.5;" x1="1106.1076" x2="1106.1076" y1="289.8269" y2="295.8269"/><line style="stroke:#2E75B6;stroke-width:0.5;" x1="1112.1076" x2="1106.1076" y1="295.8269" y2="295.8269"/><text fill="#1F4E79" font-family="sans-serif" font-size="12" lengthAdjust="spacing" textLength="57.0996" x="1019.09" y="308.9655">Filtro JWT</text><text fill="#1F4E79" font-family="sans-serif" font-size="12" lengthAdjust="spacing" textLength="78.0176" x="1019.09" y="322.9343">Bearer token</text></g><!--entity swagger--><g class="entity" data-qualified-name="backend.swagger" data-source-line="54" id="ent0008"><rect fill="#DEEAF1" height="50.9375" rx="2.5" ry="2.5" style="stroke:#2E75B6;stroke-width:0.5;" width="196.248" x="1231.1" y="196.8269"/><polygon fill="#DEEAF1" points="1410.348,201.8269,1410.348,215.8269,1422.348,215.8269,1422.348,207.8269,1416.348,201.8269,1410.348,201.8269" style="stroke:#2E75B6;stroke-width:0.5;"/><line style="stroke:#2E75B6;stroke-width:0.5;" x1="1416.348" x2="1416.348" y1="201.8269" y2="207.8269"/><line style="stroke:#2E75B6;stroke-width:0.5;" x1="1422.348" x2="1416.348" y1="207.8269" y2="207.8269"/><text fill="#1F4E79" font-family="sans-serif" font-size="12" lengthAdjust="spacing" textLength="137.1914" x="1241.1" y="220.9655">Swagger UI + OpenAPI</text><text fill="#1F4E79" font-family="sans-serif" font-size="12" lengthAdjust="spacing" textLength="166.248" x="1241.1" y="234.9343">/swagger-ui e /swagger.yml</text></g><!--entity usuario--><g class="entity" data-qualified-name="usuario" data-source-line="45" id="ent0002"><ellipse cx="28.8018" cy="228.8069" fill="#F1F1F1" rx="8" ry="8" style="stroke:#181818;stroke-width:0.5;"/><path d="M28.8018,236.8069 L28.8018,263.8069 M15.8018,244.8069 L41.8018,244.8069 M28.8018,263.8069 L15.8018,278.8069 M28.8018,263.8069 L41.8018,278.8069" fill="none" style="stroke:#181818;stroke-width:0.5;"/><text fill="#000000" font-family="sans-serif" font-size="12" lengthAdjust="spacing" textLength="45.6035" x="6" y="291.4455">Usuario</text></g><!--entity h2--><g class="entity" data-qualified-name="h2" data-source-line="57" id="ent0009"><path d="M992.81,425.8369 C992.81,415.8369 1063.0971,415.8369 1063.0971,415.8369 C1063.0971,415.8369 1133.3842,415.8369 1133.3842,425.8369 L1133.3842,476.7431 C1133.3842,486.7431 1063.0971,486.7431 1063.0971,486.7431 C1063.0971,486.7431 992.81,486.7431 992.81,476.7431 L992.81,425.8369" fill="#FDE8EC" style="stroke:#2E75B6;stroke-width:1.5;"/><path d="M992.81,425.8369 C992.81,435.8369 1063.0971,435.8369 1063.0971,435.8369 C1063.0971,435.8369 1133.3842,435.8369 1133.3842,425.8369" fill="none" style="stroke:#2E75B6;stroke-width:1.5;"/><text fill="#1F4E79" font-family="sans-serif" font-size="12" lengthAdjust="spacing" textLength="57.6035" x="1002.81" y="450.9755">Banco H2</text><text fill="#1F4E79" font-family="sans-serif" font-size="12" lengthAdjust="spacing" textLength="99.9492" x="1002.81" y="464.9443">em arquivo local</text><text fill="#1F4E79" font-family="sans-serif" font-size="12" lengthAdjust="spacing" textLength="120.5742" x="1002.81" y="478.913">./data/aluguelcarros</text></g><g class="entity" data-qualified-name="GMN17" data-source-line="69" id="ent0018"><path d="M622.28,383.3269 L622.28,421.2644 L770.0945,421.2644 L770.0945,393.3269 L760.0945,383.3269 L622.28,383.3269" fill="#FEFFDD" style="stroke:#181818;stroke-width:0.5;"/><path d="M760.0945,383.3269 L760.0945,393.3269 L770.0945,393.3269 L760.0945,383.3269" fill="#FEFFDD" style="stroke:#181818;stroke-width:1;"/><text fill="#000000" font-family="sans-serif" font-size="12" lengthAdjust="spacing" textLength="123.9434" x="628.28" y="399.4655">Context path da API:</text><text fill="#000000" font-family="sans-serif" font-size="12" lengthAdjust="spacing" textLength="126.8145" x="628.28" y="413.4343">/api/aluguelcarros/v1</text></g><!--link api to jwt--><!--link api to jwt--><g class="link" data-entity-1="ent0006" data-entity-2="ent0007" data-link-type="dependency" data-source-line="64" id="lnk14"><path d="M770.16,267.8869 C840.66,278.1369 939.8523,292.5344 1002.8423,301.6844" fill="none" id="api-to-jwt-1" style="stroke:#1F4E79;stroke-width:1.5;"/><polygon fill="#1F4E79" points="1008.78,302.5469,1000.4485,297.2946,1003.8319,301.8281,999.2985,305.2116,1008.78,302.5469" style="stroke:#1F4E79;stroke-width:1.5;"/><text fill="#000000" font-family="sans-serif" font-size="12" lengthAdjust="spacing" textLength="115.1074" x="815.6" y="272.4355">Validacao de token</text></g><!--link jwt to swagger--><!--link usuario to appAngular--><g class="link" data-entity-1="ent0002" data-entity-2="ent0004" data-link-type="dependency" data-source-line="62" id="lnk12"><path d="M51.9,257.2969 C90.95,257.2969 167.71,257.2969 228.12,257.2969" fill="none" id="usuario-to-appAngular" style="stroke:#1F4E79;stroke-width:1.5;"/><polygon fill="#1F4E79" points="234.12,257.2969,225.12,253.2969,229.12,257.2969,225.12,261.2969,234.12,257.2969" style="stroke:#1F4E79;stroke-width:1.5;"/><text fill="#000000" font-family="sans-serif" font-size="12" lengthAdjust="spacing" textLength="101.8594" x="92.6" y="254.4355">Uso da aplicacao</text></g><!--link appAngular to api--><g class="link" data-entity-1="ent0004" data-entity-2="ent0006" data-link-type="dependency" data-source-line="63" id="lnk13"><path d="M378.66,257.2969 C447.84,257.2969 546.44,257.2969 616.24,257.2969" fill="none" id="appAngular-to-api" style="stroke:#1F4E79;stroke-width:1.5;"/><polygon fill="#1F4E79" points="622.24,257.2969,613.24,253.2969,617.24,257.2969,613.24,261.2969,622.24,257.2969" style="stroke:#1F4E79;stroke-width:1.5;"/><text fill="#000000" font-family="sans-serif" font-size="12" lengthAdjust="spacing" textLength="113.0918" x="440.4831" y="240.4355">HTTP/REST + JSON</text><text fill="#000000" font-family="sans-serif" font-size="12" lengthAdjust="spacing" textLength="154.998" x="419.53" y="254.4043">Authorization: Bearer JWT</text></g><!--link api to h2--><g class="link" data-entity-1="ent0006" data-entity-2="ent0009" data-link-type="dependency" data-source-line="65" id="lnk15"><path d="M718.99,283.2269 C740.15,306.9469 774.23,341.5569 810.1,363.2969 C867.16,397.8869 933.9607,419.868 986.5707,433.828" fill="none" id="api-to-h2" style="stroke:#1F4E79;stroke-width:1.5;"/><polygon fill="#1F4E79" points="992.37,435.3669,984.6969,429.1924,987.5372,434.0845,982.6451,436.9248,992.37,435.3669" style="stroke:#1F4E79;stroke-width:1.5;"/><text fill="#000000" font-family="sans-serif" font-size="12" lengthAdjust="spacing" textLength="124.9336" x="811.1" y="360.4355">JDBC (Hibernate/JPA)</text></g><!--link api to swagger--><g class="link" data-entity-1="ent0006" data-entity-2="ent0008" data-link-type="dependency" data-source-line="66" id="lnk16"><path d="M770.23,245.0469 C783.46,243.1869 797.17,241.4869 810.1,240.2969 C956.18,226.8069 1120.2902,223.2452 1224.6002,222.4052" fill="none" id="api-to-swagger" style="stroke:#1F4E79;stroke-width:1.5;"/><polygon fill="#1F4E79" points="1230.6,222.3569,1221.5681,218.4295,1225.6002,222.3971,1221.6325,226.4292,1230.6,222.3569" style="stroke:#1F4E79;stroke-width:1.5;"/><text fill="#000000" font-family="sans-serif" font-size="12" lengthAdjust="spacing" textLength="172.3125" x="977.1" y="221.4355">Exposicao da documentacao</text></g><!--link GMN17 to backend--><g class="link" data-entity-1="ent0018" data-entity-2="ent0005" data-link-type="association" data-source-line="69" id="lnk19"><path d="M621.91,394.8969 C575.95,385.9869 520.53,366.3769 492.53,323.2969 C445.79,251.3669 445.79,202.2169 492.53,130.2969 C504.6525,111.6419 522.7044,99.4106 543.137,91.5933 C553.3534,87.6846 564.1649,84.8794 575.128,82.9265 C580.6096,81.95 586.1291,81.1866 591.631,80.6048 C593.0065,80.4594 594.3809,80.3253 595.7533,80.2021 C596.4395,80.1405 597.1252,80.0816 597.8104,80.0253" fill="none" id="GMN17-backend" style="stroke:#1F4E79;stroke-width:1.5;stroke-dasharray:7,7;"/></g><?plantuml-src jLJVRzem47xFNt6YBwqgIa7TIdcOn8z4BTBQQj3jOTd3aPZ4mzYPxK3RQV_xpawWmBIfKZLBIF5zv-y-VtTOiBa5gq3pBBUGSiqIovKC0hFWia2DIp0vfchDPGPp58Rj83DC5fbMfKo7IYWDHv5VEnafcsCfRAIadV1d1ktE3YXLoWmhe7k-4zGe5tNm81L-1W23WvAqZgABw2eQEL3fbEajuC5EUFbky9v0fs4F8h0TNOINLpKuiK-2lO0p9T8jvpJdoK8oOnpIFdiN_DfLXzhoEIRshmf7OTYFsczNw2nyMMJcdemKBSxG_CEeKTWDXs-IyHext0oXpCH_xTZh-gBLseiueDcdsYEfhQseBBTqYmatbYsHXXdweinA9jpdqB4RQCA8OqRLF7wpB0HAYmcg8A29eAAD1rEYvge1QA2ileF03tHZA3YJbdaegRwztEr0DGPq0yDqB8yZJNOmcK9VPgL0VU9FOL7KUwUtOfqmlU8fbNRMqubO2fMWo9MnlUvvzzmVd5NOGRd-_Gry2YTJ-CWJgeUbZUKOLmYTDfp2BRFsgIxBzyv5N5YjOFnb6ii1GyqqFIh4xvE_h-rUycIDMKOP3pV4ULSmILLZsJ9Lk5boOB3PdJqjXIUfz-wMspbl350c2guxiMIkspzAlbBWBnlBivRBQs7LiSHtopFb7MfDmQ7vDUTfokGtUjrayuENIRy_uflAGTqyQ5BmnNVemODHzEUZcE29R_qEMYLpohgUJkzRtjnJ64_kRcFPBsskD7z6z-Jse3QEJApqLPhev6SKF7N4RiIyhzk4l4FuU3GOml4rdp4jqRBM-Bv_iisevLDQ-5WempqD3QjAoYNRZAfKrZ4NeEQRoGY6RjuUBHHeStU2kjGBMaIxxsbhrGxS83cAtm00?></g></svg>