<svg xmlns="http://www.w3.org/2000/svg" xmlns:xlink="http://www.w3.org/1999/xlink" contentStyleType="text/css" data-diagram-type="DESCRIPTION" height="938px" preserveAspectRatio="none" style="width:502px;height:938px;background:#FFFFFF;" version="1.1" viewBox="0 0 502 938" width="502px" zoomAndPan="magnify"><?plantuml 1.2026.3beta6?><defs/><g><g class="title" data-source-line="44"><text fill="#000000" font-family="sans-serif" font-size="14" font-weight="700" lengthAdjust="spacing" textLength="467.209" x="14.1248" y="22.9951">Sistema de Aluguel de Carros — Diagrama de Casos de Uso</text></g><!--cluster br.pucminas.aluguelcarros--><g class="cluster" data-qualified-name="br.pucminas.aluguelcarros" data-source-line="63" id="ent0008"><rect fill="#F4F9FD" height="880" rx="2.5" ry="2.5" style="stroke:#2E75B6;stroke-width:1.5;" width="210.39" x="223.59" y="44.2969"/><text fill="#1F4E79" font-family="sans-serif" font-size="13" font-weight="700" lengthAdjust="spacing" textLength="195.9141" x="230.828" y="58.3638">br.pucminas.aluguelcarros</text></g><!--entity UC01--><g class="entity" data-qualified-name="br.pucminas.aluguelcarros.UC01" data-source-line="66" id="ent0009"><ellipse cx="328.281" cy="540.2943" fill="#DEEAF1" rx="51.981" ry="12.8774" style="stroke:#2E75B6;stroke-width:1.5;"/><text fill="#1F4E79" font-family="sans-serif" font-size="12" lengthAdjust="spacing" textLength="69.2695" x="293.6462" y="543.7786">Fazer Login</text></g><!--entity UC02--><g class="entity" data-qualified-name="br.pucminas.aluguelcarros.UC02" data-source-line="67" id="ent0010"><ellipse cx="328.2827" cy="398.2934" fill="#DEEAF1" rx="68.9327" ry="16.1865" style="stroke:#2E75B6;stroke-width:1.5;"/><text fill="#1F4E79" font-family="sans-serif" font-size="12" lengthAdjust="spacing" textLength="111.8496" x="272.3579" y="401.7778">Autenticar Usuário</text></g><!--entity UC03--><g class="entity" data-qualified-name="br.pucminas.aluguelcarros.UC03" data-source-line="68" id="ent0011"><ellipse cx="328.2751" cy="329.2959" fill="#DEEAF1" rx="76.6951" ry="17.739" style="stroke:#2E75B6;stroke-width:1.5;"/><text fill="#1F4E79" font-family="sans-serif" font-size="12" lengthAdjust="spacing" textLength="129.791" x="263.3796" y="332.7803">Cadastrar no Sistema</text></g><!--entity UC04--><g class="entity" data-qualified-name="br.pucminas.aluguelcarros.UC04" data-source-line="71" id="ent0012"><ellipse cx="328.2752" cy="255.2986" fill="#DEEAF1" rx="70.0252" ry="21.3117" style="stroke:#2E75B6;stroke-width:1.5;"/><text fill="#1F4E79" font-family="sans-serif" font-size="12" lengthAdjust="spacing" textLength="102.2578" x="277.1463" y="253.927">Introduzir Pedido</text><text fill="#1F4E79" font-family="sans-serif" font-size="12" lengthAdjust="spacing" textLength="63.9023" x="296.324" y="267.8958">de Aluguel</text></g><!--entity UC05--><g class="entity" data-qualified-name="br.pucminas.aluguelcarros.UC05" data-source-line="72" id="ent0013"><ellipse cx="328.2758" cy="177.2956" fill="#DEEAF1" rx="69.7858" ry="21.3187" style="stroke:#2E75B6;stroke-width:1.5;"/><text fill="#1F4E79" font-family="sans-serif" font-size="12" lengthAdjust="spacing" textLength="101.8535" x="277.349" y="175.9132">Consultar Pedido</text><text fill="#1F4E79" font-family="sans-serif" font-size="12" lengthAdjust="spacing" textLength="63.9023" x="296.3246" y="189.8819">de Aluguel</text></g><!--entity UC06--><g class="entity" data-qualified-name="br.pucminas.aluguelcarros.UC06" data-source-line="73" id="ent0014"><ellipse cx="328.2752" cy="471.2995" fill="#DEEAF1" rx="68.3552" ry="21.3626" style="stroke:#2E75B6;stroke-width:1.5;"/><text fill="#1F4E79" font-family="sans-serif" font-size="12" lengthAdjust="spacing" textLength="99.4336" x="278.5584" y="469.8494">Modificar Pedido</text><text fill="#1F4E79" font-family="sans-serif" font-size="12" lengthAdjust="spacing" textLength="63.9023" x="296.3241" y="483.8181">de Aluguel</text></g><!--entity UC07--><g class="entity" data-qualified-name="br.pucminas.aluguelcarros.UC07" data-source-line="74" id="ent0015"><ellipse cx="328.2778" cy="99.3014" fill="#DEEAF1" rx="67.0878" ry="21.4045" style="stroke:#2E75B6;stroke-width:1.5;"/><text fill="#1F4E79" font-family="sans-serif" font-size="12" lengthAdjust="spacing" textLength="97.2832" x="279.6362" y="97.7868">Cancelar Pedido</text><text fill="#1F4E79" font-family="sans-serif" font-size="12" lengthAdjust="spacing" textLength="63.9023" x="296.3266" y="111.7555">de Aluguel</text></g><!--entity UC08--><g class="entity" data-qualified-name="br.pucminas.aluguelcarros.UC08" data-source-line="77" id="ent0016"><ellipse cx="328.2799" cy="610.3005" fill="#DEEAF1" rx="73.1199" ry="22.3636" style="stroke:#2E75B6;stroke-width:1.5;"/><text fill="#1F4E79" font-family="sans-serif" font-size="12" lengthAdjust="spacing" textLength="92.7188" x="281.9205" y="606.2415">Analisar Pedido</text><text fill="#1F4E79" font-family="sans-serif" font-size="12" lengthAdjust="spacing" textLength="101.168" x="277.6959" y="620.2103">Financeiramente</text></g><!--entity UC09--><g class="entity" data-qualified-name="br.pucminas.aluguelcarros.UC09" data-source-line="78" id="ent0017"><ellipse cx="328.28" cy="681.2929" fill="#DEEAF1" rx="58.38" ry="14.076" style="stroke:#2E75B6;stroke-width:1.5;"/><text fill="#1F4E79" font-family="sans-serif" font-size="12" lengthAdjust="spacing" textLength="85.9629" x="285.2985" y="684.7772">Avaliar Pedido</text></g><!--entity UC10--><g class="entity" data-qualified-name="br.pucminas.aluguelcarros.UC10" data-source-line="81" id="ent0018"><ellipse cx="328.2845" cy="815.2998" fill="#DEEAF1" rx="67.9145" ry="15.9829" style="stroke:#2E75B6;stroke-width:1.5;"/><text fill="#1F4E79" font-family="sans-serif" font-size="12" lengthAdjust="spacing" textLength="109.4414" x="273.5638" y="818.7842">Executar Contrato</text></g><!--entity UC11--><g class="entity" data-qualified-name="br.pucminas.aluguelcarros.UC11" data-source-line="82" id="ent0019"><ellipse cx="328.2764" cy="747.2942" fill="#DEEAF1" rx="73.8864" ry="17.1773" style="stroke:#2E75B6;stroke-width:1.5;"/><text fill="#1F4E79" font-family="sans-serif" font-size="12" lengthAdjust="spacing" textLength="123.375" x="266.5889" y="750.7785">Registrar Automóvel</text></g><!--entity UC12--><g class="entity" data-qualified-name="br.pucminas.aluguelcarros.UC12" data-source-line="83" id="ent0020"><ellipse cx="328.2831" cy="887.2957" fill="#DEEAF1" rx="72.3831" ry="21.2089" style="stroke:#2E75B6;stroke-width:1.5;"/><text fill="#1F4E79" font-family="sans-serif" font-size="12" lengthAdjust="spacing" textLength="106.4531" x="275.0566" y="886.0839">Associar Contrato</text><text fill="#1F4E79" font-family="sans-serif" font-size="12" lengthAdjust="spacing" textLength="62.5078" x="297.0292" y="900.0526">de Crédito</text></g><!--entity cliente--><g class="entity" data-qualified-name="cliente" data-source-line="50" id="ent0002"><ellipse cx="152.09" cy="271.3169" fill="#DEEAF1" rx="16" ry="16" style="stroke:#2E75B6;stroke-width:0.5;"/><path d="M152.09,291.3169 C156.09,291.3169 159.09,291.3169 163.09,287.3169 C171.09,287.3169 179.09,295.3169 179.09,303.3169 L179.09,307.3169 C179.09,311.3169 175.09,315.3169 171.09,315.3169 L133.09,315.3169 C129.09,315.3169 125.09,311.3169 125.09,307.3169 L125.09,303.3169 C125.09,295.3169 133.09,287.3169 141.09,287.3169 C145.09,291.3169 148.09,291.3169 152.09,291.3169" fill="#DEEAF1" style="stroke:#2E75B6;stroke-width:0.5;"/><text fill="#1F4E79" font-family="sans-serif" font-size="12" font-weight="700" lengthAdjust="spacing" textLength="47.5898" x="128.2951" y="326.9555">Cliente</text></g><!--entity agente--><g class="entity" data-qualified-name="agente" data-source-line="51" id="ent0003"><ellipse cx="152.09" cy="590.3169" fill="#DEEAF1" rx="16" ry="16" style="stroke:#2E75B6;stroke-width:0.5;"/><path d="M152.09,610.3169 C156.09,610.3169 159.09,610.3169 163.09,606.3169 C171.09,606.3169 179.09,614.3169 179.09,622.3169 L179.09,626.3169 C179.09,630.3169 175.09,634.3169 171.09,634.3169 L133.09,634.3169 C129.09,634.3169 125.09,630.3169 125.09,626.3169 L125.09,622.3169 C125.09,614.3169 133.09,606.3169 141.09,606.3169 C145.09,610.3169 148.09,610.3169 152.09,610.3169" fill="#DEEAF1" style="stroke:#2E75B6;stroke-width:0.5;"/><text fill="#1F4E79" font-family="sans-serif" font-size="12" font-weight="700" lengthAdjust="spacing" textLength="48.4336" x="127.8732" y="645.9555">Agente</text></g><!--entity empresa--><g class="entity" data-qualified-name="empresa" data-source-line="52" id="ent0004"><ellipse cx="35.2939" cy="590.3169" fill="#DEEAF1" rx="16" ry="16" style="stroke:#2E75B6;stroke-width:0.5;"/><path d="M35.2939,610.3169 C39.2939,610.3169 42.2939,610.3169 46.2939,606.3169 C54.2939,606.3169 62.2939,614.3169 62.2939,622.3169 L62.2939,626.3169 C62.2939,630.3169 58.2939,634.3169 54.2939,634.3169 L16.2939,634.3169 C12.2939,634.3169 8.2939,630.3169 8.2939,626.3169 L8.2939,622.3169 C8.2939,614.3169 16.2939,606.3169 24.2939,606.3169 C28.2939,610.3169 31.2939,610.3169 35.2939,610.3169" fill="#DEEAF1" style="stroke:#2E75B6;stroke-width:0.5;"/><text fill="#1F4E79" font-family="sans-serif" font-size="12" font-weight="700" lengthAdjust="spacing" textLength="58.5879" x="6" y="645.9555">Empresa</text></g><!--entity banco--><g class="entity" data-qualified-name="banco" data-source-line="53" id="ent0005"><ellipse cx="35.29" cy="724.3169" fill="#DEEAF1" rx="16" ry="16" style="stroke:#2E75B6;stroke-width:0.5;"/><path d="M35.29,744.3169 C39.29,744.3169 42.29,744.3169 46.29,740.3169 C54.29,740.3169 62.29,748.3169 62.29,756.3169 L62.29,760.3169 C62.29,764.3169 58.29,768.3169 54.29,768.3169 L16.29,768.3169 C12.29,768.3169 8.29,764.3169 8.29,760.3169 L8.29,756.3169 C8.29,748.3169 16.29,740.3169 24.29,740.3169 C28.29,744.3169 31.29,744.3169 35.29,744.3169" fill="#DEEAF1" style="stroke:#2E75B6;stroke-width:0.5;"/><text fill="#1F4E79" font-family="sans-serif" font-size="12" font-weight="700" lengthAdjust="spacing" textLength="41.1445" x="14.7177" y="779.9555">Banco</text></g><!--link empresa to agente--><g class="link" data-entity-1="ent0004" data-entity-2="ent0003" data-link-type="extension" data-source-line="56" id="lnk6"><path d="M65.07,611.2969 C83.32,611.2969 88.52,611.2969 106.37,611.2969" fill="none" id="empresa-to-agente" style="stroke:#1F4E79;stroke-width:1.5;"/><polygon fill="none" points="124.37,611.2969,106.37,605.2969,106.37,617.2969,124.37,611.2969" style="stroke:#1F4E79;stroke-width:1.5;"/></g><!--link banco to agente--><g class="link" data-entity-1="ent0005" data-entity-2="ent0003" data-link-type="extension" data-source-line="57" id="lnk7"><path d="M63.03,718.9669 C94.93,718.9669 142.98,718.9669 142.98,718.9669 C142.98,718.9669 142.98,698.2569 142.98,667.2569" fill="none" id="banco-to-agente" style="stroke:#1F4E79;stroke-width:1.5;"/><polygon fill="none" points="142.98,649.2569,136.98,667.2569,148.98,667.2569,142.98,649.2569" style="stroke:#1F4E79;stroke-width:1.5;"/></g><!--link cliente to UC01--><g class="link" data-entity-1="ent0002" data-entity-2="ent0009" data-link-type="dependency" data-source-line="91" id="lnk21"><path d="M138.98,330.1069 C138.98,398.5569 138.98,536.0069 138.98,536.0069 C138.98,536.0069 216.95,536.0069 273.04,536.0069" fill="none" id="cliente-to-UC01" style="stroke:#1F4E79;stroke-width:1.5;"/><polygon fill="#1F4E79" points="279.04,536.0069,270.04,532.0069,274.04,536.0069,270.04,540.0069,279.04,536.0069" style="stroke:#1F4E79;stroke-width:1.5;"/></g><!--link cliente to UC03--><g class="link" data-entity-1="ent0002" data-entity-2="ent0011" data-link-type="dependency" data-source-line="92" id="lnk22"><path d="M180.01,320.6669 C201.65,320.6669 226.56,320.6669 254.57,320.6669" fill="none" id="cliente-to-UC03" style="stroke:#1F4E79;stroke-width:1.5;"/><polygon fill="#1F4E79" points="260.57,320.6669,251.57,316.6669,255.57,320.6669,251.57,324.6669,260.57,320.6669" style="stroke:#1F4E79;stroke-width:1.5;"/></g><!--link cliente to UC04--><g class="link" data-entity-1="ent0002" data-entity-2="ent0012" data-link-type="dependency" data-source-line="93" id="lnk23"><path d="M180.01,265.7069 C203.2,265.7069 231.05,265.7069 260.55,265.7069" fill="none" id="cliente-to-UC04" style="stroke:#1F4E79;stroke-width:1.5;"/><polygon fill="#1F4E79" points="266.55,265.7069,257.55,261.7069,261.55,265.7069,257.55,269.7069,266.55,265.7069" style="stroke:#1F4E79;stroke-width:1.5;"/></g><!--link cliente to UC05--><g class="link" data-entity-1="ent0002" data-entity-2="ent0013" data-link-type="dependency" data-source-line="94" id="lnk24"><path d="M161.98,254.3269 C161.98,220.8269 161.98,177.2969 161.98,177.2969 C161.98,177.2969 206.79,177.2969 252.24,177.2969" fill="none" id="cliente-to-UC05" style="stroke:#1F4E79;stroke-width:1.5;"/><polygon fill="#1F4E79" points="258.24,177.2969,249.24,173.2969,253.24,177.2969,249.24,181.2969,258.24,177.2969" style="stroke:#1F4E79;stroke-width:1.5;"/></g><!--link cliente to UC06--><g class="link" data-entity-1="ent0002" data-entity-2="ent0014" data-link-type="dependency" data-source-line="95" id="lnk25"><path d="M152.98,330.2569 C152.98,382.8069 152.98,471.2969 152.98,471.2969 C152.98,471.2969 204.39,471.2969 253.5,471.2969" fill="none" id="cliente-to-UC06" style="stroke:#1F4E79;stroke-width:1.5;"/><polygon fill="#1F4E79" points="259.5,471.2969,250.5,467.2969,254.5,471.2969,250.5,475.2969,259.5,471.2969" style="stroke:#1F4E79;stroke-width:1.5;"/></g><!--link cliente to UC07--><g class="link" data-entity-1="ent0002" data-entity-2="ent0015" data-link-type="dependency" data-source-line="96" id="lnk26"><path d="M142.98,254.6269 C142.98,198.4569 142.98,99.2969 142.98,99.2969 C142.98,99.2969 201.88,99.2969 254.86,99.2969" fill="none" id="cliente-to-UC07" style="stroke:#1F4E79;stroke-width:1.5;"/><polygon fill="#1F4E79" points="260.86,99.2969,251.86,95.2969,255.86,99.2969,251.86,103.2969,260.86,99.2969" style="stroke:#1F4E79;stroke-width:1.5;"/></g><!--link agente to UC01--><g class="link" data-entity-1="ent0003" data-entity-2="ent0009" data-link-type="dependency" data-source-line="98" id="lnk27"><path d="M165.98,573.6569 C165.98,558.5269 165.98,544.5869 165.98,544.5869 C165.98,544.5869 224.97,544.5869 272.7,544.5869" fill="none" id="agente-to-UC01" style="stroke:#1F4E79;stroke-width:1.5;"/><polygon fill="#1F4E79" points="278.7,544.5869,269.7,540.5869,273.7,544.5869,269.7,548.5869,278.7,544.5869" style="stroke:#1F4E79;stroke-width:1.5;"/></g><!--link agente to UC06--><g class="link" data-entity-1="ent0003" data-entity-2="ent0014" data-link-type="dependency" data-source-line="99" id="lnk28"><path d="M180.09,580.8769 C214.67,580.8769 268.98,580.8769 268.98,580.8769 C268.98,580.8769 268.98,515.9169 268.98,488.2069" fill="none" id="agente-to-UC06" style="stroke:#1F4E79;stroke-width:1.5;"/><polygon fill="#1F4E79" points="268.98,482.2069,264.98,491.2069,268.98,487.2069,272.98,491.2069,268.98,482.2069" style="stroke:#1F4E79;stroke-width:1.5;"/></g><!--link agente to UC09--><g class="link" data-entity-1="ent0003" data-entity-2="ent0017" data-link-type="dependency" data-source-line="100" id="lnk29"><path d="M161.98,649.1669 C161.98,665.6569 161.98,681.2969 161.98,681.2969 C161.98,681.2969 215.77,681.2969 263.65,681.2969" fill="none" id="agente-to-UC09" style="stroke:#1F4E79;stroke-width:1.5;"/><polygon fill="#1F4E79" points="269.65,681.2969,260.65,677.2969,264.65,681.2969,260.65,685.2969,269.65,681.2969" style="stroke:#1F4E79;stroke-width:1.5;"/></g><!--link banco to UC12--><g class="link" data-entity-1="ent0005" data-entity-2="ent0020" data-link-type="dependency" data-source-line="102" id="lnk30"><path d="M35.98,782.9769 C35.98,825.0469 35.98,887.2969 35.98,887.2969 C35.98,887.2969 163.08,887.2969 249.65,887.2969" fill="none" id="banco-to-UC12" style="stroke:#1F4E79;stroke-width:1.5;"/><polygon fill="#1F4E79" points="255.65,887.2969,246.65,883.2969,250.65,887.2969,246.65,891.2969,255.65,887.2969" style="stroke:#1F4E79;stroke-width:1.5;"/></g><!--link UC01 to UC02--><g class="link" data-entity-1="ent0009" data-entity-2="ent0010" data-link-type="dependency" data-source-line="108" id="lnk31"><path d="M380.65,540.2969 C399.85,540.2969 416.98,540.2969 416.98,540.2969 C416.98,540.2969 416.98,398.2969 416.98,398.2969 C416.98,398.2969 414.74,398.2969 403.29,398.2969" fill="none" id="UC01-to-UC02" style="stroke:#1F4E79;stroke-width:1.5;stroke-dasharray:7,7;"/><polygon fill="#1F4E79" points="397.29,398.2969,406.29,402.2969,402.29,398.2969,406.29,394.2969,397.29,398.2969" style="stroke:#1F4E79;stroke-width:1.5;"/><text fill="#000000" font-family="sans-serif" font-size="12" lengthAdjust="spacing" textLength="58.1602" x="417.98" y="489.7555">«include»</text></g><!--link UC09 to UC08--><g class="link" data-entity-1="ent0017" data-entity-2="ent0016" data-link-type="dependency" data-source-line="109" id="lnk32"><path d="M328.98,666.9269 C328.98,657.2069 328.98,650.1569 328.98,639.0269" fill="none" id="UC09-to-UC08" style="stroke:#1F4E79;stroke-width:1.5;stroke-dasharray:7,7;"/><polygon fill="#1F4E79" points="328.98,633.0269,324.98,642.0269,328.98,638.0269,332.98,642.0269,328.98,633.0269" style="stroke:#1F4E79;stroke-width:1.5;"/><text fill="#000000" font-family="sans-serif" font-size="12" lengthAdjust="spacing" textLength="58.1602" x="269.98" y="662.1155">«include»</text></g><!--link UC10 to UC09--><g class="link" data-entity-1="ent0018" data-entity-2="ent0017" data-link-type="dependency" data-source-line="115" id="lnk33"><path d="M396.56,815.2969 C414.52,815.2969 428.98,815.2969 428.98,815.2969 C428.98,815.2969 428.98,681.2969 428.98,681.2969 C428.98,681.2969 415.18,681.2969 393.15,681.2969" fill="none" id="UC10-to-UC09" style="stroke:#1F4E79;stroke-width:1.5;stroke-dasharray:7,7;"/><polygon fill="#1F4E79" points="387.15,681.2969,396.15,685.2969,392.15,681.2969,396.15,677.2969,387.15,681.2969" style="stroke:#1F4E79;stroke-width:1.5;"/><text fill="#000000" font-family="sans-serif" font-size="12" lengthAdjust="spacing" textLength="56.4785" x="429.98" y="755.7255">«extend»</text></g><!--link UC11 to UC10--><g class="link" data-entity-1="ent0019" data-entity-2="ent0018" data-link-type="dependency" data-source-line="116" id="lnk34"><path d="M328.98,764.8069 C328.98,775.3569 328.98,782.6969 328.98,793.0169" fill="none" id="UC11-to-UC10" style="stroke:#1F4E79;stroke-width:1.5;stroke-dasharray:7,7;"/><polygon fill="#1F4E79" points="328.98,799.0169,332.98,790.0169,328.98,794.0169,324.98,790.0169,328.98,799.0169" style="stroke:#1F4E79;stroke-width:1.5;"/><text fill="#000000" font-family="sans-serif" font-size="12" lengthAdjust="spacing" textLength="56.4785" x="271.98" y="794.0455">«extend»</text></g><!--link UC12 to UC10--><g class="link" data-entity-1="ent0020" data-entity-2="ent0018" data-link-type="dependency" data-source-line="117" id="lnk35"><path d="M328.98,865.6969 C328.98,854.7569 328.98,847.6969 328.98,837.6169" fill="none" id="UC12-to-UC10" style="stroke:#1F4E79;stroke-width:1.5;stroke-dasharray:7,7;"/><polygon fill="#1F4E79" points="328.98,831.6169,324.98,840.6169,328.98,836.6169,332.98,840.6169,328.98,831.6169" style="stroke:#1F4E79;stroke-width:1.5;"/><text fill="#000000" font-family="sans-serif" font-size="12" lengthAdjust="spacing" textLength="56.4785" x="271.98" y="860.7955">«extend»</text></g><?plantuml-src pLRDRjGm4BxlKunI2KwjkjlVHMYbD9kW5Vr1JIjnuEB6RchLQwzifpyBbJZ15I5uW8e3uenuWdsJFWcJdyqcQOiu815h3z5yyysCP_pPAzYf1Qj0y_ZC0kMQHPOhsUayXRkldzhpmteWV3dQV-KUkdiXtBt_0cDcnWGuPT9oIYY32suI8e0gt0U9DK4KhHCIASjCwpRKCUTSJWYM2IIoIeVsMZ0WbyoeCQk0venGTSbb3AT4c2foGgBpMAj4Kay9fM4fo5R5Wx9JaWWRA6b3FcNGxLNJ9eP5n31usm7OQSJ2jJJqVJVefg3IbEaIoC2UlxMniubW6NonC4rkhr6Gr0tM_Qr-6V7eZ4VdaXcJaLOsEZVtkl8_Yij8sJJATQ84hLUN2eN8M3pUlc0zw0V3lwhmWMGFrxxsJnghjRhCocw4gOUg1IdoDqC9BfczdZ1GsfwfJiToYpi9kR4iLvyhaZXX8ltqqhmca-wmea-F6BJYnx5HhRnstAE3Gpzit_sHwyFn1CSRa3b034Jvznnounn98H9N4NyyqSoGZCJoxpcqGsIaa9D29-btEfGNJ39D19-IsVVPBxnD2n8iBxyRp6DdtaYisbhvZep28t_FRTz45tUASw9N9aaqvfAO5P9hAChquw1mKPnFiSlBu2OsVVsYT2hV53n1CL5Yh5OfYbxp6zu9o9Hfs5KnbqvLxJZZOs-rMtKjOsfKP3AxrLmv5TzUrRT8XwvIpLNlbAvhYq9VCSffAdC5nNbjLZYIM3PDfbmNpc_aulfmvY7NQzcLDFYwaKSO1MMZIjbJb9zcU_iJPRE-HnanyIYZe6nLXY9dju8ZTSA4Wbo3pTsw4iLaAa43d3JcuNWhbch6iDirqWMIIeu3zrTEwYzgmHRXUEozy-1ViIX9EpTtSEx7wQvM6OSivlceyO2eyUpdHR7_6gL-aenH4QyaoNhdwTaFojECEGN_ajoqyzuFmmDlvCu-phxwOVOAmDs7p-2vuG4CVJWE3zftWqIbk0Qvi1k6jQPXlMdOQ1escmOywldb3eiq3SDcqu17Sl4w38gnjt3cetrlztZejs-mQPTX9Ujb3vx1y-TSHYAXR318eNu1RJUWDhROVttaxm_RsE7kQj76VjP6TeKF8SqQt2rwZnvDfFSWyXi0?></g></svg>